<?xml version="1.0" standalone="no"?>
<!DOCTYPE svg PUBLIC "-//W3C//DTD SVG 20010904//EN"
 "http://www.w3.org/TR/2001/REC-SVG-20010904/DTD/svg10.dtd">
<svg version="1.0" xmlns="http://www.w3.org/2000/svg"
 width="100.000000pt" height="30.000000pt" viewBox="0 0 100.000000 30.000000"
 preserveAspectRatio="xMidYMid meet">

<g transform="translate(0.000000,30.000000) scale(0.100000,-0.100000)"
fill="#ffffff" stroke="none">
<path d="M272 241 c-7 -4 -35 -6 -62 -3 -47 4 -48 4 -55 -27 -5 -23 -10 -29
-19 -22 -17 14 -52 -18 -59 -54 -3 -16 -9 -38 -12 -47 -11 -27 73 -25 109 3
l26 20 26 -20 c31 -25 78 -27 118 -6 25 13 27 13 22 0 -4 -12 4 -15 39 -15 33
0 45 4 45 15 0 19 16 19 24 0 4 -12 32 -15 165 -15 l161 0 6 25 c8 31 32 33
36 3 2 -19 10 -24 46 -26 41 -3 42 -2 37 21 -4 15 1 37 16 61 18 31 20 41 11
62 l-12 24 -208 0 c-148 0 -211 -3 -220 -12 -9 -9 -12 -9 -12 0 0 18 -79 16
-86 -2 -5 -12 -9 -11 -25 5 -20 20 -92 26 -117 10z m99 -11 c41 -22 17 -109
-36 -135 -46 -21 -72 -19 -101 10 -27 27 -26 47 3 93 24 38 92 54 134 32z
m-151 -8 c0 -29 -36 -105 -57 -122 -33 -26 -86 -27 -81 -3 2 9 14 20 28 23 19
4 30 19 45 58 16 41 25 52 43 52 12 0 22 -4 22 -8z m255 -19 l-6 -26 35 26
c19 15 47 27 62 27 l27 0 -21 -23 c-16 -17 -18 -26 -11 -37 9 -13 11 -13 16
-1 3 8 16 25 29 38 19 19 33 23 90 23 56 0 65 -2 60 -16 -3 -9 -6 -18 -6 -20
0 -2 -26 -5 -57 -5 l-58 -2 50 -7 c28 -4 54 -5 58 -2 5 2 7 -4 5 -13 -4 -25
-28 -31 -28 -8 -1 17 -1 17 -14 1 -8 -12 -27 -18 -50 -18 -20 0 -36 -4 -36
-10 0 -5 23 -10 50 -10 28 0 50 -2 50 -4 0 -27 -16 -36 -65 -36 -71 0 -85 7
-85 40 0 24 -3 27 -22 22 -17 -4 -20 -2 -14 13 5 15 4 16 -9 5 -13 -11 -13
-16 6 -46 l21 -34 -31 0 c-24 0 -34 7 -47 32 l-16 32 -14 -32 c-10 -24 -19
-32 -39 -32 -14 0 -25 2 -25 4 0 3 12 37 26 75 23 62 30 71 51 71 22 0 24 -3
18 -27z m449 21 c22 -8 20 -46 -3 -76 -13 -16 -18 -33 -14 -47 5 -20 2 -22
-23 -19 -21 2 -30 9 -32 26 -5 32 -48 31 -56 -3 -5 -18 -13 -25 -31 -25 -30 0
-30 1 -5 70 12 30 23 61 25 68 5 13 109 17 139 6z m-794 -59 c0 -9 -9 -15 -21
-15 -18 0 -19 2 -9 15 7 8 16 15 21 15 5 0 9 -7 9 -15z"/>
<path d="M280 186 c-18 -23 -8 -61 17 -64 26 -4 50 35 40 62 -8 20 -41 21 -57
2z m45 -18 c3 -3 -2 -11 -10 -18 -17 -15 -42 0 -31 18 6 10 31 10 41 0z"/>
<path d="M820 180 c0 -5 15 -10 34 -10 19 0 38 5 41 10 4 6 -10 10 -34 10 -23
0 -41 -4 -41 -10z"/>
</g>
</svg>
